PathFileType	4	(X/Y/Z)	W10_1_OpenSim.trc																																																																																																																						
DataRate	CameraRate	NumFrames	NumMarkers	Units	OrigDataRate	OrigDataStartFrame	OrigNumFrames																																																																																																																		
100	100	7	40	mm	100	1	3000																																																																																																																		
Frame#	Time	R.ASIS			R.PSIS			S2			L.PSIS			L.ASIS			R.TH1			R.TH2			R.TH3			R.MKnee			R.Knee			R.SH1			R.SH2			R.SH3			R.SH4			R.Ankle			R.MAnkle			R.Heel			R.MT5			R.MT1			L.TH1			L.TH2			L.TH3			L.TH4			L.MKnee			L.Knee			L.SH1			L.SH2			L.SH3			L.Ankle			L.MAnkle			L.Heel			L.MT5			L.MT1			R.Acr			L.Acr			C7			T10			Clav			Sternum			R.Back		
		X1	Y1	Z1	X2	Y2	Z2	X3	Y3	Z3	X4	Y4	Z4	X5	Y5	Z5	X6	Y6	Z6	X7	Y7	Z7	X8	Y8	Z8	X9	Y9	Z9	X10	Y10	Z10	X11	Y11	Z11	X12	Y12	Z12	X13	Y13	Z13	X14	Y14	Z14	X15	Y15	Z15	X16	Y16	Z16	X17	Y17	Z17	X18	Y18	Z18	X19	Y19	Z19	X20	Y20	Z20	X21	Y21	Z21	X22	Y22	Z22	X23	Y23	Z23	X24	Y24	Z24	X25	Y25	Z25	X26	Y26	Z26	X27	Y27	Z27	X28	Y28	Z28	X29	Y29	Z29	X30	Y30	Z30	X31	Y31	Z31	X32	Y32	Z32	X33	Y33	Z33	X34	Y34	Z34	X35	Y35	Z35	X36	Y36	Z36	X37	Y37	Z37	X38	Y38	Z38	X39	Y39	Z39	X40	Y40	Z40
1	0	1106.3153	1048.3429	-398.1192	911.8996	1042.5962	-475.9016	904.9864	1036.3395	-520.6639	903.283	1042.1698	-570.8245	1073.2628	1034.2982	-691.8068	1172.5831	743.9974	-373.3479	1097.7745	712.3088	-362.0433	1138.2705	611.5054	-377.822	1196.4383	508.3598	-506.2047	1205.332	512.3135	-390.337	1237.7042	349.33	-388.2542	1252.8351	238.9859	-406.3501	1158.095	336.784	-371.5107	1177.3927	225.5503	-381.7109	1209.3091	74.1235	-394.0916	1245.2084	94.0994	-487.2406	1150.4865	35.0275	-453.1119	1325.2214	38.6776	-366.7662	1374.2327	41.181	-455.2104	1060.4189	733.457	-701.8385	1046.0089	625.6075	-697.1714	977.1386	740.3305	-712.9307	966.53	631.1299	-700.0434	1003.5424	470.7434	-587.9008	990.8439	486.277	-698.0361	916.9259	369.5423	-719.0583	851.5817	419.7922	-714.254	787.7204	330.5231	-711.8144	711.832	128.3202	-720.6419	749.1962	127.1905	-624.704	639.6578	119.9008	-661.8763	787.3761	38.5948	-742.9353	829.88	45.5828	-639.5182	1055.7944	1429.0564	-371.6109	1023.4663	1431.5803	-695.4075	993.4578	1481.1804	-532.6133	935.6915	1150.3435	-533.548	1117.7339	1371.8169	-542.8207	1139.1162	1231.9773	-538.7749	906.1052	1383.6454	-445.8238
2	0.01	1106.1487	1050.0935	-395.2904	911.5969	1043.5542	-473.5881	904.5591	1037.273	-518.2383	902.8732	1042.705	-568.4714	1072.963	1035.323	-688.9566	1171.197	744.2061	-370.8035	1095.9156	713.1267	-359.8573	1135.3777	612.001	-376.14	1192.1645	508.6102	-504.9453	1201.585	512.1013	-389.0602	1231.6799	348.5598	-387.4772	1245.3357	238.1415	-405.8728	1151.8456	337.0803	-370.9153	1169.7963	225.6015	-381.3845	1199.4467	74.2051	-394.1926	1235.4281	94.014	-487.3817	1140.548	35.0133	-453.0488	1315.262	38.6477	-366.6955	1364.4111	40.9101	-455.1162	1065.0311	734.1976	-700.1883	1053.0443	626.0586	-696.5131	981.6619	739.2983	-710.9464	973.4682	629.8597	-699.2485	1015.1556	469.678	-588.5499	1001.1161	485.9498	-698.4844	924.9255	371.3666	-719.6959	861.1364	423.4382	-714.0989	794.7541	336.2166	-711.7443	712.6818	137.4014	-721.8057	749.471	134.0713	-626.1272	640.629	134.387	-663.1254	781.141	43.1365	-743.4904	823.2895	47.3466	-639.8406	1055.9812	1430.4078	-369.1287	1022.612	1432.8365	-692.7058	993.0651	1482.2141	-529.9669	935.5407	1151.3911	-531.0073	1117.4642	1372.9974	-540.4109	1138.9424	1233.2539	-536.4581	906.2938	1384.5831	-442.9095
3	0.02	1105.934	1051.8108	-392.5407	911.2363	1044.5394	-471.2768	904.0653	1038.2314	-515.8099	902.3792	1043.2654	-566.1221	1072.5388	1036.3616	-686.1864	1169.6693	744.3837	-368.3203	1093.9228	713.9514	-357.7189	1132.3444	612.4966	-374.4697	1187.7751	508.8478	-503.6768	1197.6636	511.8872	-387.7793	1225.5287	347.8042	-386.6872	1237.7465	237.3129	-405.3938	1145.4629	337.373	-370.3148	1162.0958	225.659	-381.0615	1189.5718	74.278	-394.291	1225.6245	93.9362	-487.5049	1130.6028	34.9985	-452.9888	1305.2957	38.6121	-366.6303	1354.5659	40.6621	-455.0311	1069.6195	735.0304	-698.5751	1060.0718	626.6331	-695.8613	986.1677	738.342	-709.0052	980.4139	628.6898	-698.4459	1026.6951	468.8289	-589.1061	1011.4297	485.7544	-698.8956	933.0627	373.2954	-720.2619	870.8279	427.1602	-713.9882	801.9605	341.9869	-711.6912	713.8306	146.7729	-722.8135	749.9572	141.2223	-627.3621	641.94	149.054	-664.2621	775.2722	48.1842	-743.9348	817.0227	49.4687	-640.1245	1056.1669	1431.7822	-366.6866	1021.7165	1434.1031	-690.0544	992.6467	1483.2723	-527.3512	935.3415	1152.4633	-528.4805	1117.1606	1374.1929	-538.0524	1138.7236	1234.5433	-534.1866	906.4543	1385.5546	-440.0105
4	0.03	1105.6331	1053.4683	-389.9394	910.7677	1045.5758	-468.9719	903.4542	1039.2297	-513.3823	901.7364	1043.874	-563.7808	1071.8885	1037.4217	-683.5673	1167.8893	744.5128	-365.9482	1091.6916	714.7923	-355.6634	1129.0607	612.9954	-372.8179	1183.1826	509.0638	-502.3945	1193.4304	511.6735	-386.4902	1219.1556	347.0791	-385.8747	1229.998	236.5183	-404.9115	1138.8472	337.6627	-369.6911	1154.2195	225.7327	-380.7289	1179.6736	74.3362	-394.3788	1215.7805	93.8742	-487.5951	1120.6446	34.9831	-452.935	1295.3132	38.5684	-366.5732	1344.6796	40.4541	-454.9592	1074.1528	736.044	-697.0266	1067.072	627.4421	-695.2142	990.6346	737.5403	-707.1386	987.3598	627.7209	-697.6267	1038.0798	468.3866	-589.4807	1021.7963	485.8183	-699.2335	941.4265	375.4247	-720.6888	880.7417	431.0321	-713.9454	809.4612	347.9024	-711.6573	715.5198	156.6445	-723.5299	750.84	148.8447	-628.2519	643.8685	163.994	-665.1731	770.1011	54.1253	-744.176	811.381	52.2346	-640.3473	1056.3462	1433.1942	-364.321	1020.7457	1435.3863	-687.4958	992.1793	1484.3771	-524.7982	935.0497	1153.5834	-525.9828	1116.7925	1375.4163	-535.7902	1138.4174	1235.8518	-532.0018	906.5599	1386.5896	-437.1414
5	0.04	1105.2223	1055.0507	-387.5354	910.1558	1046.6805	-466.6805	902.6976	1040.2739	-510.9679	900.9105	1044.5522	-561.4544	1070.9499	1038.5048	-681.1523	1165.7894	744.5914	-363.7234	1089.1586	715.66	-353.7094	1125.4605	613.504	-371.1869	1178.3303	509.2531	-501.1006	1188.8035	511.4659	-385.1923	1212.5134	346.4004	-385.0387	1222.0515	235.7785	-404.4278	1131.9496	337.9558	-369.0125	1146.1404	225.8341	-380.3578	1169.7432	74.3769	-394.4465	1205.8874	93.8363	-487.6437	1110.6688	34.9683	-452.89	1285.3055	38.5187	-366.5229	1334.7429	40.2951	-454.8996	1078.5912	737.3199	-695.556	1074.0075	628.5797	-694.5621	995.035	736.9726	-705.3602	994.2788	627.0496	-696.7806	1049.2305	468.4923	-589.6045	1032.1868	486.2587	-699.4659	950.0381	377.8364	-720.9167	890.8873	435.1207	-713.9568	817.3021	354.0141	-711.619	717.8982	167.0849	-723.8586	752.2668	157.022	-628.697	646.5908	179.1523	-665.7507	765.8977	61.1425	-744.1525	806.6343	55.8131	-640.51	1056.5075	1434.647	-362.0639	1019.6752	1436.6864	-685.0627	991.6453	1485.5465	-522.3378	934.6273	1154.7732	-523.5303	1116.3341	1376.6771	-533.6587	1137.9861	1237.1797	-529.9383	906.5878	1387.713	-434.3162
6	0.05	1104.6899	1056.5553	-385.3492	909.3837	1047.8639	-464.4135	901.7869	1041.3712	-508.5857	899.897	1045.3229	-559.154	1069.7065	1039.6119	-678.9684	1163.3413	744.6281	-361.6718	1086.297	716.5621	-351.8632	1121.5196	614.0282	-369.5773	1173.1816	509.4106	-499.8049	1183.7549	511.2692	-383.8931	1205.5971	345.7789	-384.1891	1213.8945	235.1135	-403.9499	1124.7692	338.2587	-368.2476	1137.8668	225.9701	-379.9193	1159.7736	74.3995	-394.491	1195.9445	93.8291	-487.6503	1100.6725	34.957	-452.8546	1275.2673	38.4676	-366.477	1324.7546	40.1856	-454.8495	1082.8874	738.9283	-694.1619	1080.8246	630.1186	-693.8917	999.3343	736.712	-703.6686	1001.1286	626.7601	-695.8968	1060.0836	469.2256	-589.4426	1042.5377	487.1729	-699.5682	958.8566	380.5956	-720.9028	901.2017	439.4768	-713.9693	825.4542	360.3453	-711.5248	721.0123	177.9964	-723.7517	754.3495	165.7027	-628.6659	650.172	194.3134	-665.9	762.8542	69.187	-743.8395	803.0219	60.2457	-640.6337	1056.6325	1436.1376	-359.941	1018.49	1437.9996	-682.7783	991.0333	1486.7949	-519.9944	934.0462	1156.0499	-521.1351	1115.7668	1377.9816	-531.6804	1137.4008	1238.5245	-528.0214	906.5211	1388.9445	-431.5491
7	0.06	1104.0276	1057.9857	-383.3713	908.4505	1049.1322	-462.1867	900.727	1042.5364	-506.2597	898.7141	1046.2119	-556.8961	1068.186	1040.7543	-677.012	1160.5458	744.6367	-359.8111	1083.1073	717.4981	-350.1259	1117.2451	614.5691	-367.9936	1167.7122	509.5311	-498.525	1178.2941	511.0845	-382.6092	1198.4244	345.2178	-383.344	1205.5314	234.5364	-403.4901	1117.3309	338.5719	-367.3853	1129.422	226.1414	-379.402	1149.7629	74.407	-394.5161	1185.9551	93.8544	-487.6229	1090.6556	34.9515	-452.8289	1265.1998	38.4207	-366.4351	1314.7201	40.1205	-454.8062	1086.9916	740.9197	-692.8323	1087.4637	632.1066	-693.1895	1003.4934	736.8152	-702.0551	1007.8602	626.9133	-694.9675	1070.5984	470.6049	-588.9986	1052.7648	488.627	-699.5264	967.7948	383.7472	-720.6348	911.569	444.1236	-713.9031	833.8326	366.8808	-711.3074	724.8194	189.1336	-723.2083	757.1719	174.7157	-628.1882	654.58	209.1272	-665.5432	761.0842	78.0131	-743.2504	800.7567	65.4579	-640.7532	1056.7006	1437.6627	-357.9687	1017.1843	1439.3235	-680.6558	990.3383	1488.1325	-517.7866	933.2924	1157.4246	-518.803	1115.0814	1379.3328	-529.8648	1136.6421	1239.8833	-526.2638	906.3481	1390.2965	-428.8552
